<svg width="88" height="50" viewBox="0 0 88 50" fill="none" xmlns="http://www.w3.org/2000/svg">
<path d="M10.3954 14.7573C11.6474 7.83437 18.6501 7.26974 21.9949 7.85278C22.087 6.93221 20.5956 5.27518 13.8937 6.01166C5.51638 6.93226 0.821147 13.7447 0.360848 23.503C-0.0994506 33.2613 6.16061 37.404 6.52885 39.4293C6.82344 41.0496 3.2147 45.9349 1.37351 48.175H3.12264C4.68766 46.8248 8.09387 43.9771 9.19858 43.3879C10.5795 42.6514 14.7222 46.1497 19.3252 48.175C23.9281 50.2003 33.7785 50.6606 41.5116 42.9276C47.698 36.7412 45.0098 27.4002 42.8924 23.503C41.9105 21.6311 39.8729 17.2982 39.5783 14.9415C39.2101 11.9955 41.6957 8.68139 41.9719 8.68139C42.3159 8.68139 40.591 8.58933 40.2227 8.68139C39.8545 8.77345 36.9086 10.4305 33.5944 10.2464C30.2803 10.0623 26.6899 9.23375 26.5979 9.60199C26.5058 9.97023 29.1755 10.9829 29.1755 14.1129C29.1755 17.9426 23.161 24.8532 20.1537 27.8298H22.2711C23.7133 26.5103 27.2791 23.5582 30.0041 22.3062C36.5403 19.2683 42.248 23.503 40.9592 28.9345C38.1053 39.7055 26.5979 38.5093 20.2458 34.6422C13.9669 30.8197 8.8304 23.4109 10.3954 14.7573Z" fill="white"/>
<circle cx="46.3664" cy="3.43476" r="3.31415" fill="white"/>
<path fill-rule="evenodd" clip-rule="evenodd" d="M46.0783 17.0876C46.4763 13.1075 48.7117 5.53147 54.5783 2.58764C57.7631 0.989575 61.1971 0.858168 63.5783 1.08764C65.9596 1.31711 69.2354 2.18892 71.0783 3.08765C72.7465 3.90113 77.4752 6.81863 81.5783 12.0876C82.4948 13.2645 86.1904 19.0876 87.0783 23.5876C87.3743 25.0876 88.3341 31.2383 86.5783 35.5876C84.818 39.9483 82.7685 42.453 78.5783 44.5876C73.3587 47.2467 69.0632 46.6446 63.5783 44.5876C59.5783 43.0876 55.5461 40.115 52.0783 35.5876C47.4598 29.558 45.5783 22.0876 46.0783 17.0876ZM53.5783 10.0876C54.6738 7.69997 55.6705 6.13804 58.0783 5.08764C59.5783 4.43328 62.0797 4.14023 64.5783 4.58765C67.2195 5.06059 68.7613 6.07025 70.9871 7.52792L71.0783 7.58764C71.1278 7.62001 71.1877 7.66616 71.2569 7.72452C75.2658 11.106 78.7205 15.8553 79.0783 21.0876V21.0876C79.1809 22.5876 79.5514 24.9206 78.5783 27.0876C77.3892 29.7357 76.2135 31.3703 73.5783 32.5876C70.7679 33.8859 66.6539 32.8567 65.6064 32.5947L65.5783 32.5876C63.5783 32.0876 61.3105 31.0627 59.0783 29.0876C56.9999 27.2486 55.8665 25.5458 54.5783 23.0876C54.2679 22.4953 53.9971 21.7992 53.7635 21.074C52.6166 17.5128 52.0181 13.4881 53.5783 10.0876V10.0876Z" fill="white"/>
</svg>
