<svg viewBox="0 0 246 191" fill="none" xmlns="http://www.w3.org/2000/svg">
<circle cx="38.2509" cy="34.9717" r="6.01071" fill="#EBEEF1"/>
<circle cx="193.71" cy="11.2018" r="11.2018" fill="#EBEEF1"/>
<circle cx="40.1632" cy="161.47" r="10.6554" fill="#EBEEF1"/>
<circle cx="230.866" cy="151.087" r="10.6554" fill="#EBEEF1"/>
<circle cx="210.101" cy="163.109" r="5.19107" fill="#EBEEF1"/>
<path d="M143.452 7.94422C143.135 7.87685 143.135 7.42471 143.452 7.35734L148.242 6.33878C148.357 6.31423 148.448 6.22426 148.473 6.10891L149.504 1.35285C149.572 1.03762 150.022 1.03762 150.09 1.35285L151.122 6.10891C151.147 6.22426 151.237 6.31423 151.353 6.33878L156.142 7.35734C156.459 7.42471 156.459 7.87685 156.142 7.94422L151.353 8.96279C151.237 8.98734 151.147 9.0773 151.122 9.19265L150.09 13.9487C150.022 14.2639 149.572 14.2639 149.504 13.9487L148.473 9.19265C148.448 9.0773 148.357 8.98734 148.242 8.96279L143.452 7.94422Z" fill="#DBDEE2"/>
<path d="M13.2361 113.996C13.3584 113.419 14.183 113.419 14.3053 113.996L16.1319 122.626C16.1764 122.836 16.3401 123.001 16.5501 123.047L25.0905 124.907C25.664 125.032 25.664 125.85 25.0905 125.975L16.5501 127.835C16.3401 127.881 16.1764 128.046 16.1319 128.256L14.3053 136.886C14.183 137.463 13.3584 137.463 13.2361 136.886L11.4095 128.256C11.365 128.046 11.2013 127.881 10.9912 127.835L2.4508 125.975C1.87731 125.85 1.87731 125.032 2.4508 124.907L10.9912 123.047C11.2013 123.001 11.365 122.836 11.4095 122.626L13.2361 113.996Z" fill="#DBDEE2"/>
<path d="M213.841 37.4963C213.964 36.9186 214.788 36.9186 214.911 37.4963L215.976 42.5305C216.021 42.7408 216.184 42.9055 216.394 42.9513L221.391 44.0398C221.964 44.1647 221.964 44.9826 221.391 45.1076L216.394 46.1961C216.184 46.2418 216.021 46.4065 215.976 46.6168L214.911 51.6511C214.788 52.2288 213.964 52.2288 213.841 51.6511L212.776 46.6168C212.731 46.4065 212.568 46.2418 212.357 46.1961L207.361 45.1076C206.787 44.9826 206.787 44.1647 207.361 44.0398L212.357 42.9513C212.568 42.9055 212.731 42.7408 212.776 42.5305L213.841 37.4963Z" fill="#DBDEE2"/>
<path d="M235.87 118.209L237.543 126.114L245.336 127.812L237.543 129.51L235.87 137.415L234.197 129.51L226.404 127.812L234.197 126.114L235.87 118.209Z" fill="white"/>
<circle cx="130.9" cy="97.3105" r="93.5" fill="url(#paint0_radial_1630_3129)"/>
<rect x="126.218" y="44.8552" width="98.2853" height="105.826" rx="5.64026" transform="rotate(10 126.218 44.8552)" fill="white" stroke="#DBDEE2" stroke-width="2"/>
<rect x="130.923" y="51.574" width="86.1046" height="75.084" rx="5.64026" transform="rotate(10 130.923 51.574)" fill="#EBEEF1" stroke="#EBEEF1" stroke-width="2"/>
<rect x="31.0818" y="61.9232" width="98.2853" height="105.826" rx="5.64026" transform="rotate(-10 31.0818 61.9232)" fill="white" stroke="#DBDEE2" stroke-width="2"/>
<rect x="37.8005" y="66.6283" width="86.1046" height="75.084" rx="5.64026" transform="rotate(-10 37.8005 66.6283)" fill="#EBEEF1" stroke="#EBEEF1" stroke-width="2"/>
<rect x="71.4648" y="36.1562" width="117.26" height="126.287" rx="6.55472" fill="white" stroke="#DBDEE2" stroke-width="2"/>
<rect x="78.4082" y="43.0996" width="102.679" height="89.4868" rx="6.55472" fill="url(#paint1_linear_1630_3129)" stroke="#DBDEE2" stroke-width="2"/>
<circle cx="142.951" cy="64.4664" r="8.11875" fill="white"/>
<path d="M153.239 81.041C153.774 80.1976 155.005 80.1976 155.541 81.041L173.194 108.837C173.77 109.745 173.118 110.932 172.043 110.932H136.737C135.661 110.932 135.009 109.745 135.586 108.837L153.239 81.041Z" fill="#DBDEE2"/>
<path d="M113.254 63.21C113.391 62.9774 113.726 62.9724 113.87 63.2012L143.03 109.574C143.181 109.814 143.009 110.127 142.726 110.127H86.2842C86.0052 110.127 85.8315 109.824 85.9727 109.584L113.254 63.21Z" fill="#DBDEE2" stroke="#DBDEE2" stroke-width="2"/>
<path d="M113 60.8763C113.217 60.4982 113.759 60.4902 113.987 60.8618L121.801 73.5976C122.127 74.1286 121.492 74.7257 120.982 74.3685L118.613 72.7104C118.41 72.568 118.138 72.5725 117.94 72.7215L114.563 75.2538C114.397 75.3787 114.176 75.4037 113.985 75.3191L110.053 73.5714C109.903 73.5047 109.731 73.5054 109.582 73.5733L105.969 75.2155C105.461 75.4463 104.956 74.8906 105.233 74.4067L113 60.8763Z" fill="white"/>
<path d="M154.982 79.1109C154.821 78.8304 154.418 78.8245 154.249 79.1002L148.451 88.5495C148.21 88.9434 148.68 89.3865 149.059 89.1214L150.796 87.9057C150.956 87.7932 151.173 87.8049 151.321 87.9341L153.796 90.1C153.931 90.2184 154.126 90.2391 154.284 90.1518L157.155 88.5565C157.273 88.4909 157.416 88.4852 157.538 88.5411L160.198 89.7498C160.575 89.9211 160.95 89.5088 160.744 89.1498L154.982 79.1109Z" fill="white"/>
<path d="M94.9766 116.131H121.916" stroke="#DBDEE2" stroke-width="2" stroke-linecap="round"/>
<path d="M80.3262 110.926H180.323" stroke="#DBDEE2" stroke-width="2" stroke-linecap="square"/>
<path d="M114.533 120.375H131.882" stroke="#DBDEE2" stroke-width="2" stroke-linecap="round"/>
<path d="M101.619 120.559H111.952" stroke="#DBDEE2" stroke-width="2" stroke-linecap="round"/>
<path d="M148.855 116.5H157.343" stroke="#DBDEE2" stroke-width="2" stroke-linecap="round"/>
<defs>
<radialGradient id="paint0_radial_1630_3129" cx="0" cy="0" r="1" gradientUnits="userSpaceOnUse" gradientTransform="translate(131.309 97.7188) rotate(-5.71059) scale(139.513)">
<stop offset="0.468186" stop-color="white" stop-opacity="0"/>
<stop offset="0.723994" stop-color="white"/>
</radialGradient>
<linearGradient id="paint1_linear_1630_3129" x1="153.548" y1="57.9204" x2="79.2337" y2="137.153" gradientUnits="userSpaceOnUse">
<stop stop-color="#EBEBED"/>
<stop offset="1" stop-color="white"/>
</linearGradient>
</defs>
</svg>
