<svg width="28" height="28" viewBox="0 0 28 28" fill="none" xmlns="http://www.w3.org/2000/svg">
<rect x="2.89478" y="3" width="22.193" height="22.193" rx="1.92982" fill="currentColor"/>
<rect x="4.82446" y="4.92981" width="18.3333" height="18.3333" rx="0.964912" fill="#F0F0F0"/>
<path d="M9.05594 9.73428C9.40469 9.46246 9.89356 9.46246 10.2423 9.73428L15.7911 14.0591C16.5153 14.6236 16.1162 15.7851 15.1979 15.7851H4.10032C3.18207 15.7851 2.7829 14.6236 3.50715 14.0591L9.05594 9.73428Z" fill="currentColor"/>
<path d="M17.2576 11.6641C17.6063 11.3923 18.0952 11.3923 18.444 11.6641L23.9928 15.9889C24.717 16.5534 24.3178 17.7149 23.3996 17.7149H12.302C11.3837 17.7149 10.9846 16.5534 11.7088 15.9889L17.2576 11.6641Z" fill="currentColor"/>
<rect x="2.89478" y="15.5439" width="21.2281" height="9.16667" rx="1.92982" fill="currentColor"/>
</svg>
