<svg viewBox="0 0 24 24" fill="none" xmlns="http://www.w3.org/2000/svg">
<mask id="mask0_584_1227" style="mask-type:alpha" maskUnits="userSpaceOnUse" x="0" y="0" width="24" height="24">
<rect width="24" height="24" fill="currentColor"/>
</mask>
<g mask="url(#mask0_584_1227)">
<path d="M1.99951 18.9998V4.99976H21.9995V18.9998H1.99951ZM2.99951 17.9998H20.9995V5.99976H2.99951V17.9998ZM8.65326 16.4805H15.3458V14.942H8.65326V16.4805ZM5.53801 13.2305H7.07651V11.692H5.53801V13.2305ZM9.32651 13.2305H10.865V11.692H9.32651V13.2305ZM13.134 13.2305H14.6725V11.692H13.134V13.2305ZM16.9225 13.2305H18.461V11.692H16.9225V13.2305ZM5.53801 9.98051H7.07651V8.44201H5.53801V9.98051ZM9.32651 9.98051H10.865V8.44201H9.32651V9.98051ZM13.134 9.98051H14.6725V8.44201H13.134V9.98051ZM16.8265 10.0768H18.365V8.53826H16.8265V10.0768Z" fill="currentColor"/>
</g>
</svg>
