<svg viewBox="0 0 48 28" fill="none" xmlns="http://www.w3.org/2000/svg">
<path d="M5.54549 8.47285C6.23573 4.65619 10.0964 4.3449 11.9404 4.66634C11.9912 4.15882 11.169 3.24528 7.47414 3.65131C2.85563 4.15884 0.267097 7.9146 0.0133297 13.2945C-0.240438 18.6743 3.2108 20.9582 3.41381 22.0748C3.57622 22.9681 1.58669 25.6614 0.571618 26.8964H1.53593C2.39874 26.152 4.27662 24.582 4.88566 24.2572C5.64696 23.8512 7.93087 25.7798 10.4685 26.8964C13.0062 28.013 18.4368 28.2667 22.7001 24.0034C26.1108 20.5928 24.6288 15.443 23.4614 13.2945C22.9201 12.2625 21.7967 9.87368 21.6343 8.5744C21.4313 6.95028 22.8016 5.12316 22.9539 5.12316C23.1436 5.12316 22.1926 5.07241 21.9896 5.12316C21.7866 5.17391 20.1625 6.08748 18.3353 5.98597C16.5082 5.88446 14.5288 5.42768 14.4781 5.63069C14.4273 5.83371 15.8992 6.392 15.8992 8.11761C15.8992 10.229 12.5833 14.0389 10.9253 15.6799H12.0927C12.8878 14.9524 14.8536 13.3249 16.3559 12.6347C19.9594 10.9598 23.1062 13.2945 22.3956 16.2889C20.8223 22.2271 14.4781 21.5676 10.9761 19.4356C7.51448 17.3282 4.68268 13.2437 5.54549 8.47285Z" fill="currentColor"/>
<circle cx="25.3767" cy="2.23063" r="1.82712" fill="currentColor"/>
<path d="M28.8203 2.77776C33.4691 -0.5517 40.7043 1.58959 44.9804 7.55999C49.2566 13.5306 48.9545 21.0703 44.3056 24.3998C39.6567 27.7291 32.4216 25.5881 28.1455 19.6176C23.8693 13.647 24.1714 6.10727 28.8203 2.77776ZM41.3808 7.22893C38.6582 3.30499 34.0859 1.76457 31.1689 3.7885C28.2519 5.81246 28.0948 10.635 30.8174 14.559C33.54 18.4827 38.1113 20.0223 41.0283 17.9985C43.9453 15.9745 44.1034 11.1529 41.3808 7.22893Z" fill="currentColor"/>
</svg>
