<svg width="27" height="26" viewBox="0 0 27 26" fill="none" xmlns="http://www.w3.org/2000/svg">
<mask id="mask0_384_1013" style="mask-type:alpha" maskUnits="userSpaceOnUse" x="0" y="0" width="27" height="26">
<rect x="0.666626" width="26" height="26" fill="#D9D9D9"/>
</mask>
<g mask="url(#mask0_384_1013)">
<path d="M13.6666 22.75C11.9194 22.75 10.4896 22.527 9.37717 22.081C8.26458 21.6353 7.70829 21.0596 7.70829 20.3542C7.70829 20.018 7.867 19.6961 8.18442 19.3884C8.50165 19.0809 8.9367 18.8195 9.48956 18.6041L10.3416 19.3272C10.0403 19.441 9.7288 19.5916 9.40723 19.7792C9.08566 19.9666 8.88461 20.1514 8.80408 20.3334C8.92776 20.6918 9.4521 21.0036 10.3771 21.2688C11.3021 21.534 12.3952 21.6667 13.6563 21.6667C14.9173 21.6667 16.0148 21.534 16.9489 21.2688C17.8829 21.0036 18.4117 20.6918 18.5354 20.3334C18.4785 20.1472 18.2709 19.9604 17.9125 19.773C17.5541 19.5854 17.2152 19.4346 16.8958 19.3207L17.7416 18.5916C18.3445 18.8112 18.809 19.0747 19.1353 19.3822C19.4617 19.6899 19.625 20.0107 19.625 20.3447C19.625 21.053 19.0687 21.631 17.9561 22.0786C16.8437 22.5262 15.4139 22.75 13.6666 22.75ZM13.6937 18.1458C15.4951 16.7444 16.8437 15.3732 17.7394 14.0324C18.6353 12.6914 19.0833 11.3736 19.0833 10.0791C19.0833 8.18251 18.4999 6.7507 17.3332 5.78365C16.1666 4.81677 14.9478 4.33333 13.6769 4.33333C12.4062 4.33333 11.184 4.81731 10.0104 5.78527C8.83676 6.75323 8.24996 8.18657 8.24996 10.0853C8.24996 11.3326 8.69575 12.6212 9.58733 13.9512C10.4791 15.281 11.8479 16.6792 13.6937 18.1458ZM13.6666 19.5C11.4844 17.8429 9.85555 16.2335 8.77998 14.6719C7.70441 13.1102 7.16663 11.5805 7.16663 10.0826C7.16663 8.95122 7.36208 7.96151 7.75298 7.11344C8.14406 6.26555 8.65206 5.55479 9.27696 4.98117C9.90204 4.40754 10.6011 3.97565 11.374 3.6855C12.147 3.39517 12.9123 3.25 13.6699 3.25C14.4275 3.25 15.1917 3.39517 15.9625 3.6855C16.7333 3.97565 17.4312 4.40754 18.0563 4.98117C18.6812 5.55479 19.1892 6.26618 19.5803 7.11533C19.9712 7.9643 20.1666 8.95222 20.1666 10.0791C20.1666 11.5775 19.6288 13.1078 18.5533 14.67C17.4777 16.2321 15.8488 17.8421 13.6666 19.5ZM13.6769 11.6875C14.1548 11.6875 14.5643 11.5205 14.9051 11.1865C15.2462 10.8525 15.4168 10.4396 15.4168 9.94798C15.4168 9.45633 15.2453 9.03997 14.9024 8.6989C14.5597 8.35801 14.1478 8.18756 13.6666 8.18756C13.1957 8.18756 12.7863 8.35891 12.4384 8.7016C12.0905 9.0443 11.9165 9.45624 11.9165 9.93742C11.9165 10.4361 12.0905 10.8525 12.4384 11.1865C12.7863 11.5205 13.1992 11.6875 13.6769 11.6875Z" fill="#1C1B1F"/>
</g>
</svg>
