<svg width="26" height="26" viewBox="0 0 26 26" fill="none" xmlns="http://www.w3.org/2000/svg">
<mask id="mask0_384_1018" style="mask-type:alpha" maskUnits="userSpaceOnUse" x="0" y="0" width="26" height="26">
<rect width="26" height="26" fill="#D9D9D9"/>
</mask>
<g mask="url(#mask0_384_1018)">
<path d="M13.0003 12.333C12.1066 12.333 11.3415 12.0148 10.705 11.3783C10.0686 10.7419 9.75033 9.97676 9.75033 9.08301C9.75033 8.18926 10.0686 7.42415 10.705 6.7877C11.3415 6.15124 12.1066 5.83301 13.0003 5.83301C13.8941 5.83301 14.6592 6.15124 15.2956 6.7877C15.9321 7.42415 16.2503 8.18926 16.2503 9.08301C16.2503 9.97676 15.9321 10.7419 15.2956 11.3783C14.6592 12.0148 13.8941 12.333 13.0003 12.333ZM5.41699 20.1666V18.3832C5.41699 17.9359 5.54717 17.5175 5.80753 17.1278C6.06808 16.7384 6.41844 16.436 6.85864 16.2205C7.88094 15.7303 8.90388 15.3626 9.92745 15.1174C10.951 14.8724 11.9753 14.7499 13.0003 14.7499C14.0253 14.7499 15.0496 14.8724 16.0732 15.1174C17.0968 15.3626 18.1197 15.7303 19.142 16.2205C19.5822 16.436 19.9326 16.7384 20.1931 17.1278C20.4535 17.5175 20.5837 17.9359 20.5837 18.3832V20.1666H5.41699ZM6.50033 19.0833H19.5003V18.3832C19.5003 18.1428 19.4229 17.9171 19.2679 17.7061C19.1132 17.495 18.899 17.3165 18.6253 17.1706C17.7337 16.7387 16.8144 16.4079 15.8674 16.178C14.9204 15.9482 13.9647 15.8333 13.0003 15.8333C12.036 15.8333 11.0803 15.9482 10.1333 16.178C9.18627 16.4079 8.26697 16.7387 7.37539 17.1706C7.10167 17.3165 6.88744 17.495 6.7327 17.7061C6.57778 17.9171 6.50033 18.1428 6.50033 18.3832V19.0833ZM13.0003 11.2497C13.5962 11.2497 14.1062 11.0375 14.5305 10.6132C14.9548 10.1889 15.167 9.67884 15.167 9.08301C15.167 8.48717 14.9548 7.97711 14.5305 7.5528C14.1062 7.12849 13.5962 6.91634 13.0003 6.91634C12.4045 6.91634 11.8944 7.12849 11.4701 7.5528C11.0458 7.97711 10.8337 8.48717 10.8337 9.08301C10.8337 9.67884 11.0458 10.1889 11.4701 10.6132C11.8944 11.0375 12.4045 11.2497 13.0003 11.2497Z" fill="#1C1B1F"/>
</g>
</svg>
