<svg width="33" height="32" viewBox="0 0 33 32" fill="none" xmlns="http://www.w3.org/2000/svg">
<mask id="mask0_786_827" style="mask-type:alpha" maskUnits="userSpaceOnUse" x="0" y="0" width="33" height="32">
<rect x="0.5" width="32" height="32" fill="#D9D9D9"/>
</mask>
<g mask="url(#mask0_786_827)">
<path d="M16.4999 14.5793C15.2237 14.5793 14.1312 14.125 13.2224 13.2162C12.3136 12.3074 11.8593 11.2149 11.8593 9.93872C11.8593 8.66255 12.3136 7.57007 13.2224 6.66128C14.1312 5.75249 15.2237 5.2981 16.4999 5.2981C17.776 5.2981 18.8685 5.75249 19.7773 6.66128C20.6861 7.57007 21.1405 8.66255 21.1405 9.93872C21.1405 11.2149 20.6861 12.3074 19.7773 13.2162C18.8685 14.125 17.776 14.5793 16.4999 14.5793ZM5.67175 25.7648V23.2183C5.67175 22.5797 5.85764 21.9822 6.2294 21.4258C6.60142 20.8697 7.10171 20.4379 7.73026 20.1303C9.18999 19.4303 10.6506 18.9053 12.1122 18.5552C13.5737 18.2053 15.0363 18.0304 16.4999 18.0304C17.9635 18.0304 19.4261 18.2053 20.8876 18.5552C22.3491 18.9053 23.8098 19.4303 25.2695 20.1303C25.898 20.4379 26.3983 20.8697 26.7704 21.4258C27.1421 21.9822 27.328 22.5797 27.328 23.2183V25.7648H5.67175ZM7.21863 24.2179H25.7811V23.2183C25.7811 22.8751 25.6705 22.5528 25.4493 22.2515C25.2284 21.9501 24.9225 21.6952 24.5316 21.4869C23.2586 20.8702 21.9459 20.3978 20.5937 20.0696C19.2415 19.7414 17.8769 19.5773 16.4999 19.5773C15.1229 19.5773 13.7583 19.7414 12.4061 20.0696C11.0538 20.3978 9.74119 20.8702 8.46812 21.4869C8.07727 21.6952 7.77138 21.9501 7.55043 22.2515C7.32923 22.5528 7.21863 22.8751 7.21863 23.2183V24.2179ZM16.4999 13.0325C17.3507 13.0325 18.079 12.7295 18.6848 12.1237C19.2907 11.5178 19.5936 10.7895 19.5936 9.93872C19.5936 9.08794 19.2907 8.35962 18.6848 7.75376C18.079 7.1479 17.3507 6.84497 16.4999 6.84497C15.6491 6.84497 14.9208 7.1479 14.3149 7.75376C13.7091 8.35962 13.4061 9.08794 13.4061 9.93872C13.4061 10.7895 13.7091 11.5178 14.3149 12.1237C14.9208 12.7295 15.6491 13.0325 16.4999 13.0325Z" fill="#1C1B1F"/>
<path d="M7.21863 24.2179H25.7811V23.2183C25.7811 22.8751 25.6705 22.5528 25.4493 22.2515C25.2284 21.9501 24.9225 21.6952 24.5316 21.4869C23.2586 20.8702 21.9459 20.3978 20.5937 20.0696C19.2415 19.7414 17.8769 19.5773 16.4999 19.5773C15.1229 19.5773 13.7583 19.7414 12.4061 20.0696C11.0538 20.3978 9.74119 20.8702 8.46812 21.4869C8.07727 21.6952 7.77138 21.9501 7.55043 22.2515C7.32923 22.5528 7.21863 22.8751 7.21863 23.2183V24.2179Z" fill="#1C1B1F"/>
<path d="M16.4999 13.0325C17.3507 13.0325 18.079 12.7295 18.6848 12.1237C19.2907 11.5178 19.5936 10.7895 19.5936 9.93872C19.5936 9.08794 19.2907 8.35962 18.6848 7.75376C18.079 7.1479 17.3507 6.84497 16.4999 6.84497C15.6491 6.84497 14.9208 7.1479 14.3149 7.75376C13.7091 8.35962 13.4061 9.08794 13.4061 9.93872C13.4061 10.7895 13.7091 11.5178 14.3149 12.1237C14.9208 12.7295 15.6491 13.0325 16.4999 13.0325Z" fill="#1C1B1F"/>
</g>
</svg>
