<svg width="25" height="24" viewBox="0 0 25 24" fill="none" xmlns="http://www.w3.org/2000/svg">
<mask id="mask0_566_1892" style="mask-type:alpha" maskUnits="userSpaceOnUse" x="0" y="0" width="25" height="24">
<rect x="0.5" width="24" height="24" fill="#D9D9D9"/>
</mask>
<g mask="url(#mask0_566_1892)">
<path d="M12 15.577V6.927L9.66925 9.25775L8.9615 8.5385L12.5 5L16.0385 8.5385L15.3307 9.25775L13 6.927V15.577H12ZM7.1155 19C6.65517 19 6.27083 18.8458 5.9625 18.5375C5.65417 18.2292 5.5 17.8448 5.5 17.3845V14.9615H6.5V17.3845C6.5 17.5385 6.56408 17.6796 6.69225 17.8077C6.82042 17.9359 6.9615 18 7.1155 18H17.8845C18.0385 18 18.1796 17.9359 18.3077 17.8077C18.4359 17.6796 18.5 17.5385 18.5 17.3845V14.9615H19.5V17.3845C19.5 17.8448 19.3458 18.2292 19.0375 18.5375C18.7292 18.8458 18.3448 19 17.8845 19H7.1155Z" fill="white"/>
</g>
</svg>
