<svg width="204" height="105" viewBox="0 0 204 105" fill="none" xmlns="http://www.w3.org/2000/svg">
<path d="M41.3297 34.7168C43.4867 22.7897 55.5512 21.8169 61.3138 22.8214C61.4724 21.2354 58.903 18.3806 47.3567 19.6495C32.9238 21.2355 24.8347 32.9722 24.0417 49.7843C23.2486 66.5964 34.0337 73.7336 34.6682 77.2229C35.1757 80.0144 28.9584 88.431 25.7863 92.2904H28.7998C31.4961 89.9641 37.3644 85.058 39.2677 84.0429C41.6468 82.7741 48.784 88.801 56.7142 92.2904C64.6444 95.7797 81.6151 96.5727 94.9379 83.2499C105.596 72.5917 100.965 56.4986 97.317 49.7843C95.6252 46.5594 92.1147 39.0944 91.6072 35.0341C90.9728 29.9587 95.2551 24.249 95.7309 24.249C96.3237 24.249 93.3519 24.0904 92.7174 24.249C92.083 24.4076 87.0077 27.2625 81.2979 26.9453C75.5881 26.6281 69.4026 25.2006 69.244 25.835C69.0854 26.4694 73.6849 28.2141 73.6849 33.6067C73.6849 40.2046 63.3227 52.1105 58.1416 57.2387H61.7895C64.2744 54.9654 70.4176 49.8795 75.1123 47.7225C86.3733 42.4885 96.2067 49.7843 93.9863 59.142C89.0695 77.6987 69.244 75.6379 58.3003 68.9755C47.4828 62.3898 38.6334 49.6256 41.3297 34.7168Z" fill="#769DFF"/>
<circle cx="24.7098" cy="95.2098" r="5.70976" fill="#769DFF"/>
<path d="M114.064 16.9201C128.591 6.51554 151.202 13.2063 164.565 31.8645C177.927 50.5226 176.983 74.0827 162.455 84.4875C147.928 94.8922 125.317 88.2014 111.954 69.5432C98.5916 50.885 99.536 27.3248 114.064 16.9201ZM153.314 30.8303C144.806 18.5677 130.518 13.7535 121.403 20.0783C112.287 26.4032 111.795 41.472 120.303 53.7346C128.811 65.9969 143.098 70.8103 152.214 64.4856C161.33 58.1606 161.822 43.0927 153.314 30.8303Z" fill="#769DFF"/>
<path d="M7.52219 77.5V83.4599H2L6.38527 87.0693L2.9745 91.0985L8.17186 89.9234L9.22757 94.9599L12.0699 91.0985L16.4551 92.7774L14.1001 87.9088L19.4599 85.4745L14.1001 84.2993L14.9934 78.8431L10.9329 82.2007L7.52219 77.5Z" fill="#94EE70"/>
<path d="M171.042 9.5V14.6825H166L170.004 17.8212L166.89 21.3248L171.635 20.3029L172.599 24.6825L175.194 21.3248L179.198 22.7847L177.048 18.5511L181.942 16.4343L177.048 15.4124L177.864 10.6679L174.156 13.5876L171.042 9.5Z" fill="#FF72EE"/>
</svg>
