<svg width="121" height="121" viewBox="0 0 121 121" fill="none" xmlns="http://www.w3.org/2000/svg">
<g clip-path="url(#clip0_1061_3)">
<rect width="120.74" height="120.74" rx="13.5409" fill="#769DFF"/>
<ellipse cx="84.657" cy="59.0367" rx="18.7802" ry="24.1196" transform="rotate(-35.6101 84.657 59.0367)" fill="white"/>
<path d="M28.3954 49.7573C29.6474 42.8344 36.6501 42.2697 39.9949 42.8528C40.087 41.9322 38.5956 40.2752 31.8937 41.0117C23.5164 41.9323 18.8211 48.7447 18.3608 58.503C17.9005 68.2613 24.1606 72.404 24.5289 74.4293C24.8234 76.0496 21.2147 80.9349 19.3735 83.175H21.1226C22.6877 81.8248 26.0939 78.9771 27.1986 78.3879C28.5795 77.6514 32.7222 81.1497 37.3252 83.175C41.9281 85.2003 51.7785 85.6606 59.5116 77.9276C65.698 71.7412 63.0098 62.4002 60.8924 58.503C59.9105 56.6311 57.8729 52.2982 57.5783 49.9415C57.2101 46.9955 59.6957 43.6814 59.9719 43.6814C60.3159 43.6814 58.591 43.5893 58.2227 43.6814C57.8545 43.7735 54.9086 45.4305 51.5944 45.2464C48.2803 45.0623 44.6899 44.2337 44.5979 44.602C44.5058 44.9702 47.1755 45.9829 47.1755 49.1129C47.1755 52.9426 41.161 59.8532 38.1537 62.8298H40.2711C41.7133 61.5103 45.2791 58.5582 48.0041 57.3062C54.5403 54.2683 60.248 58.503 58.9592 63.9345C56.1053 74.7055 44.5979 73.5093 38.2458 69.6422C31.9669 65.8197 26.8304 58.4109 28.3954 49.7573Z" fill="white"/>
<circle cx="64.3664" cy="38.4348" r="3.31415" fill="white"/>
<ellipse cx="83.8149" cy="54.1483" rx="11.6607" ry="15.6859" transform="rotate(-34.7541 83.8149 54.1483)" fill="#769DFF"/>
</g>
<defs>
<clipPath id="clip0_1061_3">
<rect width="120.74" height="120.74" fill="white"/>
</clipPath>
</defs>
</svg>
