<svg width="126" height="71" viewBox="0 0 126 71" fill="none" xmlns="http://www.w3.org/2000/svg">
<path d="M14.4791 21.0689C16.2813 11.1037 26.3613 10.291 31.176 11.1302C31.3085 9.8051 29.1618 7.41988 19.5147 8.48001C7.45595 9.80516 0.697381 19.6113 0.0348033 33.658C-0.627775 47.7046 8.38329 53.6678 8.91335 56.5832C9.3374 58.9154 4.14279 65.9476 1.49247 69.1721H4.01027C6.26304 67.2286 11.1661 63.1294 12.7563 62.2813C14.744 61.2212 20.7072 66.2568 27.333 69.1721C33.9588 72.0875 48.138 72.7501 59.2693 61.6188C68.1743 52.7137 64.3049 39.2678 61.257 33.658C59.8435 30.9635 56.9105 24.7264 56.4864 21.334C55.9564 17.0935 59.5343 12.323 59.9319 12.323C60.4271 12.323 57.9441 12.1904 57.4141 12.323C56.884 12.4555 52.6435 14.8408 47.8729 14.5757C43.1024 14.3107 37.9343 13.1181 37.8017 13.6481C37.6692 14.1782 41.5122 15.6358 41.5122 20.1414C41.5122 25.654 32.8545 35.6015 28.5257 39.8862H31.5735C33.6496 37.9868 38.7824 33.7375 42.7048 31.9353C52.1134 27.5623 60.3294 33.658 58.4742 41.4764C54.3662 56.9807 37.8017 55.2589 28.6583 49.6924C19.6201 44.19 12.2263 33.5254 14.4791 21.0689Z" fill="#769DFF"/>
<circle cx="66.2576" cy="4.77056" r="4.77056" fill="#769DFF"/>
<path d="M75.2492 6.1994C87.3872 -2.49366 106.278 3.09689 117.443 18.6857C128.607 34.2747 127.819 53.9592 115.681 62.6525C103.543 71.3457 84.6524 65.756 73.4875 50.1672C62.3226 34.5781 63.1111 14.8927 75.2492 6.1994ZM108.043 17.8215C100.934 7.576 88.9974 3.5546 81.381 8.83905C73.765 14.1236 73.3535 26.7128 80.4621 36.9582C87.5707 47.2036 99.5079 51.2251 107.124 45.9406C114.74 40.656 115.152 28.0668 108.043 17.8215Z" fill="#769DFF"/>
</svg>
